<svg aria-hidden="true" style="width:0;height:0;position:absolute;overflow:hidden" xmlns="http://www.w3.org/2000/svg"><defs><symbol id="icon-Thunderstorm" viewBox="0 0 32 32"><path d="m12 24 2 2-2 6 6-6-2-2 2-4-6 4zM32 8.427a5.577 5.577 0 0 0-6.02-5.553A7.647 7.647 0 0 0 20 0a7.648 7.648 0 0 0-5.98 2.874 5.577 5.577 0 0 0-6.019 5.553c0 .322.043.633.094.94-.034.044-.074.085-.107.13a6.918 6.918 0 0 0-.987-.07c-3.859 0-7 3.141-7 7s3.141 7 7 7c.856 0 1.693-.156 2.482-.458.069.06.151.102.221.16l1.77-1.18c-.59-.418-1.141-.883-1.602-1.438a4.973 4.973 0 0 1-2.871.915 5 5 0 0 1 0-10c.676 0 1.316.138 1.902.38.035-.068.078-.125.113-.19a8.152 8.152 0 0 1 1.292-1.753c1.443-1.493 3.448-2.438 5.693-2.438 3.107 0 5.771 1.792 7.096 4.38.353-.146.729-.24 1.117-.302l.787-.078c.771 0 1.492.19 2.145.5a4.993 4.993 0 0 1 1.79 1.45 4.958 4.958 0 0 1 1.065 3.05c0 2.763-2.238 5-5 5a4.983 4.983 0 0 1-2.871-.915c-.875 1.055-2.027 1.848-3.322 2.348l-.374.746 1.141 1.141a10.034 10.034 0 0 0 2.944-1.777 6.926 6.926 0 0 0 2.482.458c3.859 0 7-3.141 7-7 0-1.604-.565-3.068-1.479-4.25a5.525 5.525 0 0 0 1.479-3.75zm-2.902 2.352a6.94 6.94 0 0 0-5.085-1.282A9.918 9.918 0 0 0 16 5.427a9.876 9.876 0 0 0-5.809 1.897 3.56 3.56 0 0 1 3.379-2.467c.484 0 .941.098 1.359.271C15.878 3.279 17.781 2 19.999 2s4.122 1.279 5.068 3.128a3.57 3.57 0 0 1 4.932 3.299c0 .906-.348 1.723-.902 2.352z"/></symbol><symbol id="icon-Clouds" viewBox="0 0 32 32"><path d="M32 15a5.578 5.578 0 0 0-6.02-5.554A7.644 7.644 0 0 0 20 6.572a7.642 7.642 0 0 0-5.98 2.874A5.578 5.578 0 0 0 8.001 15c0 .322.043.631.094.94-.034.044-.074.085-.107.13a6.918 6.918 0 0 0-.987-.07c-3.859 0-7 3.141-7 7s3.141 7 7 7c.856 0 1.693-.156 2.482-.458A9.906 9.906 0 0 0 16.001 32a9.9 9.9 0 0 0 6.518-2.458 6.926 6.926 0 0 0 2.482.458c3.859 0 7-3.141 7-7 0-1.605-.565-3.068-1.479-4.25.911-.994 1.479-2.302 1.479-3.75zm-7 13a4.97 4.97 0 0 1-2.871-.917C20.662 28.851 18.477 30 16 30s-4.662-1.148-6.129-2.917A4.968 4.968 0 0 1 7 28c-2.762 0-5-2.238-5-5s2.238-5 5-5c.676 0 1.316.137 1.902.379.035-.066.078-.125.113-.189a8.128 8.128 0 0 1 1.292-1.753c1.443-1.495 3.448-2.438 5.693-2.438 3.107 0 5.771 1.792 7.096 4.379a5.07 5.07 0 0 1 1.117-.301l.787-.078c.771 0 1.492.19 2.145.5a4.99 4.99 0 0 1 1.79 1.449A4.96 4.96 0 0 1 30 22.999a5 5 0 0 1-5 5zm4.098-10.648a6.934 6.934 0 0 0-5.085-1.282A9.915 9.915 0 0 0 16 12c-2.133 0-4.145.69-5.809 1.896a3.56 3.56 0 0 1 3.379-2.467c.484 0 .941.098 1.359.271.949-1.848 2.852-3.126 5.07-3.126s4.122 1.279 5.068 3.126a3.57 3.57 0 0 1 4.932 3.301c0 .905-.348 1.721-.902 2.351z"/></symbol><symbol id="icon-Snow" viewBox="0 0 32 32"><path d="m20.378 27.73-1.125-.648c.034-.195.06-.394.06-.602s-.026-.406-.063-.602l1.128-.65c.526-.307.706-.983.404-1.506a1.102 1.102 0 0 0-1.508-.406l-1.137.656a3.325 3.325 0 0 0-1.031-.6v-1.306a1.105 1.105 0 0 0-2.209 0v1.305a3.301 3.301 0 0 0-1.033.602l-1.134-.656a1.104 1.104 0 1 0-1.104 1.913l1.122.648c-.037.197-.06.396-.06.603s.023.406.06.602l-1.122.648a1.103 1.103 0 1 0 1.102 1.914l1.135-.652c.305.258.65.461 1.034.598V30.9c0 .609.495 1.102 1.104 1.102s1.105-.492 1.105-1.102v-1.309c.383-.137.73-.34 1.033-.602l1.135.656a1.104 1.104 0 1 0 1.104-1.914zM16 27.586a1.105 1.105 0 1 1 0-2.206 1.105 1.105 0 0 1 0 2.206zm13.635-2.82-.755-.201a1.892 1.892 0 0 0-.181-.686l.548-.548a.655.655 0 1 0-.927-.928l-.549.547a1.985 1.985 0 0 0-.685-.18l-.201-.754a.658.658 0 0 0-.805-.465.66.66 0 0 0-.464.805l.201.744a2.1 2.1 0 0 0-.281.229 2.272 2.272 0 0 0-.227.279l-.744-.201a.66.66 0 0 0-.806.465.66.66 0 0 0 .464.805l.75.202c.021.236.081.466.186.685l-.551.551a.654.654 0 0 0 .003.926.654.654 0 0 0 .924.003l.552-.552c.216.107.448.167.688.185l.198.751a.658.658 0 1 0 1.271-.342l-.201-.744c.094-.066.19-.141.279-.227.086-.087.159-.184.227-.28l.745.201a.656.656 0 0 0 .341-1.269zm-2.24.418a.657.657 0 0 1-.93-.928.66.66 0 0 1 .93 0 .66.66 0 0 1 0 .928zM7.434 21.406l-.742.199a2.425 2.425 0 0 0-.228-.277 2.06 2.06 0 0 0-.28-.227l.199-.746a.656.656 0 1 0-1.266-.339l-.203.754c-.238.02-.466.078-.684.181l-.551-.548a.657.657 0 0 0-.927.928l.548.548a1.95 1.95 0 0 0-.181.686l-.753.201a.657.657 0 1 0 .34 1.269l.742-.202a1.786 1.786 0 0 0 .508.508l-.199.744a.654.654 0 1 0 1.265.342l.203-.75a1.96 1.96 0 0 0 .688-.184l.549.549a.654.654 0 0 0 .927-.003.654.654 0 0 0 0-.926l-.551-.551c.106-.216.168-.449.184-.688l.754-.199a.658.658 0 0 0-.344-1.27zm-1.899 1.779a.66.66 0 0 1-.93 0 .66.66 0 0 1 0-.927.656.656 0 1 1 .93.927zM32 11c0-3.859-3.141-7-7-7-.332 0-.66.023-.987.07C22.146 1.526 19.199 0 16 0S9.855 1.526 7.987 4.07A6.918 6.918 0 0 0 7 4c-3.859 0-7 3.141-7 7s3.141 7 7 7c.856 0 1.693-.156 2.482-.458A9.906 9.906 0 0 0 16 20a9.9 9.9 0 0 0 6.518-2.458A6.926 6.926 0 0 0 25 18c3.859 0 7-3.141 7-7zm-9.871 4.083C20.662 16.851 18.477 18 16 18s-4.662-1.148-6.129-2.917A4.968 4.968 0 0 1 7 16c-2.762 0-5-2.238-5-5s2.238-5 5-5c.676 0 1.316.138 1.902.38C10.229 3.792 12.893 2 16 2s5.771 1.792 7.096 4.38A4.983 4.983 0 0 1 25 6c2.762 0 5 2.238 5 5s-2.238 5-5 5a4.97 4.97 0 0 1-2.871-.917z"/></symbol><symbol id="icon-Mist" viewBox="0 0 32 32"><path d="M26.065 10.38a8.039 8.039 0 0 0-5.733-2.423c-2.16 0-4.23.889-5.729 2.423a6.24 6.24 0 0 0-5.939 6.224 6.236 6.236 0 0 0 7.309 6.135 7.97 7.97 0 0 0 4.358 1.303 7.973 7.973 0 0 0 4.361-1.303A6.235 6.235 0 0 0 32 16.604a6.238 6.238 0 0 0-5.935-6.224zm-.292 10.453c-.52 0-1.023-.094-1.5-.276a5.99 5.99 0 0 1-3.941 1.486 5.985 5.985 0 0 1-3.937-1.486 4.202 4.202 0 0 1-1.5.276 4.235 4.235 0 0 1-4.23-4.229 4.235 4.235 0 0 1 4.825-4.187 6 6 0 0 1 9.686 0 4.233 4.233 0 0 1 4.825 4.187 4.233 4.233 0 0 1-4.227 4.229zM9 22H1a1 1 0 0 0 0 2h8a1 1 0 0 0 0-2zm-8-2h4a1 1 0 0 0 0-2H1a1 1 0 0 0 0 2zm2-4h4a1 1 0 0 0 0-2H3a1 1 0 0 0 0 2z"/></symbol><symbol id="icon-Haze" viewBox="0 0 32 32"><path d="M26.065 10.38a8.039 8.039 0 0 0-5.733-2.423c-2.16 0-4.23.889-5.729 2.423a6.24 6.24 0 0 0-5.939 6.224 6.236 6.236 0 0 0 7.309 6.135 7.97 7.97 0 0 0 4.358 1.303 7.973 7.973 0 0 0 4.361-1.303A6.235 6.235 0 0 0 32 16.604a6.238 6.238 0 0 0-5.935-6.224zm-.292 10.453c-.52 0-1.023-.094-1.5-.276a5.99 5.99 0 0 1-3.941 1.486 5.985 5.985 0 0 1-3.937-1.486 4.202 4.202 0 0 1-1.5.276 4.235 4.235 0 0 1-4.23-4.229 4.235 4.235 0 0 1 4.825-4.187 6 6 0 0 1 9.686 0 4.233 4.233 0 0 1 4.825 4.187 4.233 4.233 0 0 1-4.227 4.229zM9 22H1a1 1 0 0 0 0 2h8a1 1 0 0 0 0-2zm-8-2h4a1 1 0 0 0 0-2H1a1 1 0 0 0 0 2zm2-4h4a1 1 0 0 0 0-2H3a1 1 0 0 0 0 2z"/></symbol><symbol id="icon-Wind" viewBox="0 0 32 32"><path d="M26.938 12c-1.656 0-3 1.344-3 3 0 .353.073.685.184 1H4.938a1 1 0 0 0 0 2h22a3.001 3.001 0 0 0 0-6zm-22 2h12a3.001 3.001 0 0 0 0-6c-1.656 0-3 1.344-3 3 0 .353.073.685.184 1H4.938a1 1 0 0 0 0 2zm16 6c-.059 0-.115.013-.174.018-.039-.003-.072-.018-.111-.018H5.225c-.711 0-1.287.448-1.287 1s.576 1 1.287 1h12.897a2.996 2.996 0 0 0-.184 1 3.001 3.001 0 0 0 6 0c0-1.656-1.344-3-3-3z"/></symbol><symbol id="icon-Moon" viewBox="0 0 32 32"><path d="M21.866 21.447c-3.117 3.12-8.193 3.12-11.313 0s-3.12-8.195 0-11.314a7.952 7.952 0 0 1 2.989-1.863.998.998 0 0 1 1.039.237.995.995 0 0 1 .237 1.039c-.784 2.211-.25 4.604 1.391 6.245 1.638 1.639 4.031 2.172 6.245 1.391a.996.996 0 0 1 1.039.237.995.995 0 0 1 .236 1.039 7.907 7.907 0 0 1-1.863 2.989zm-9.899-9.9a6.007 6.007 0 0 0 0 8.486c2.5 2.501 6.758 2.276 8.937-.51-2.247.141-4.461-.671-6.109-2.318s-2.458-3.861-2.318-6.108c-.18.141-.35.29-.51.451z"/></symbol><symbol id="icon-Rain" viewBox="0 0 32 32"><path d="M25 4c-.332 0-.66.023-.987.07C22.146 1.526 19.199 0 16 0S9.855 1.526 7.987 4.07A6.918 6.918 0 0 0 7 4c-3.859 0-7 3.141-7 7s3.141 7 7 7c.856 0 1.693-.156 2.482-.458A9.906 9.906 0 0 0 16 20a9.9 9.9 0 0 0 6.518-2.458A6.926 6.926 0 0 0 25 18c3.859 0 7-3.141 7-7s-3.141-7-7-7zm0 12a4.97 4.97 0 0 1-2.871-.917C20.662 16.851 18.477 18 16 18s-4.662-1.148-6.129-2.917A4.968 4.968 0 0 1 7 16c-2.762 0-5-2.238-5-5s2.238-5 5-5c.676 0 1.316.138 1.902.38C10.229 3.792 12.893 2 16 2s5.771 1.792 7.096 4.38A4.983 4.983 0 0 1 25 6c2.762 0 5 2.238 5 5s-2.238 5-5 5zM14.063 30a2 2 0 1 0 4 0c0-1.105-2-4-2-4s-2 2.895-2 4zM22 28a2 2 0 1 0 4 0c0-1.105-2-4-2-4s-2 2.895-2 4zM6 24c0 1.105.894 2 2 2s2-.895 2-2-2-4-2-4-2 2.895-2 4z"/></symbol><symbol id="icon-Drizzle" viewBox="0 0 32 32"><path d="M25 6c-.332 0-.66.023-.987.07C22.146 3.526 19.199 2 16 2S9.855 3.526 7.987 6.07A6.918 6.918 0 0 0 7 6c-3.859 0-7 3.141-7 7s3.141 7 7 7c.856 0 1.693-.156 2.482-.458A9.906 9.906 0 0 0 16 22a9.9 9.9 0 0 0 6.518-2.458A6.926 6.926 0 0 0 25 20c3.859 0 7-3.141 7-7s-3.141-7-7-7zm0 12a4.97 4.97 0 0 1-2.871-.917C20.662 18.851 18.477 20 16 20s-4.662-1.148-6.129-2.917A4.968 4.968 0 0 1 7 18c-2.762 0-5-2.238-5-5s2.238-5 5-5c.676 0 1.316.138 1.902.38C10.229 5.792 12.893 4 16 4s5.771 1.792 7.096 4.38A4.983 4.983 0 0 1 25 8c2.762 0 5 2.238 5 5s-2.238 5-5 5zM14 28a2 2 0 1 0 4 0c0-1.105-2-4-2-4s-2 2.895-2 4z"/></symbol><symbol id="icon-Clear" viewBox="0 0 32 32"><path d="M16 9c-3.859 0-7 3.141-7 7s3.141 7 7 7 7-3.141 7-7-3.141-7-7-7zm0 12c-2.762 0-5-2.238-5-5s2.238-5 5-5 5 2.238 5 5-2.238 5-5 5zm0-14a1 1 0 0 0 1-1V4a1 1 0 0 0-2 0v2a1 1 0 0 0 1 1zm0 18a1 1 0 0 0-1 1v2a1 1 0 0 0 2 0v-2a1 1 0 0 0-1-1zm7.777-15.365 1.414-1.414a.999.999 0 1 0-1.414-1.414l-1.414 1.414a.999.999 0 1 0 1.414 1.414zM8.223 22.365l-1.414 1.414a.999.999 0 1 0 1.414 1.414l1.414-1.414a.999.999 0 1 0-1.414-1.414zM7 16a1 1 0 0 0-1-1H4a1 1 0 0 0 0 2h2a1 1 0 0 0 1-1zm21-1h-2a1 1 0 0 0 0 2h2a1 1 0 0 0 0-2zM8.221 9.635a.999.999 0 1 0 1.414-1.414L8.221 6.807a.999.999 0 1 0-1.414 1.414l1.414 1.414zm15.558 12.728a.999.999 0 1 0-1.414 1.414l1.414 1.414a.999.999 0 1 0 1.414-1.414l-1.414-1.414z"/></symbol></defs></svg>