<svg xmlns="http://www.w3.org/2000/svg" width="24" height="24" version="1.0"><path fill="#010101" d="M12 15.517c-2.004 0-3.635-1.641-3.635-3.659A3.636 3.636 0 0 1 12 8.229c2.02 0 3.663 1.628 3.663 3.629A3.665 3.665 0 0 1 12 15.517zm0-6.588a2.935 2.935 0 0 0-2.935 2.929c0 1.631 1.316 2.958 2.935 2.958a2.964 2.964 0 0 0 2.962-2.958c0-1.615-1.329-2.929-2.962-2.929zm0-1.725a.35.35 0 0 1-.35-.35V5.553a.35.35 0 0 1 .7 0v1.301a.35.35 0 0 1-.35.35zm0 11.593a.35.35 0 0 1-.35-.35v-1.301a.35.35 0 0 1 .7 0v1.301a.35.35 0 0 1-.35.35zm6.457-6.447h-1.275a.35.35 0 0 1 0-.7h1.275a.35.35 0 0 1 0 .7zm-11.611 0H5.543a.35.35 0 0 1 0-.7h1.303a.35.35 0 0 1 0 .7zm9.742 4.553a.347.347 0 0 1-.243-.099l-.936-.905a.35.35 0 1 1 .487-.503l.936.905a.35.35 0 0 1-.244.602zm-8.213-8.2a.35.35 0 0 1-.244-.099l-.933-.905a.35.35 0 0 1 .487-.503l.934.905a.35.35 0 0 1-.244.602zm-.934 8.2a.35.35 0 0 1-.243-.601l.934-.905a.35.35 0 0 1 .487.503l-.934.905a.353.353 0 0 1-.244.098zm8.211-8.2a.35.35 0 0 1-.243-.602l.936-.905a.35.35 0 0 1 .487.503l-.936.905a.35.35 0 0 1-.244.099z"/></svg>